<svg width="188" height="168" viewBox="0 0 188 168" fill="none" xmlns="http://www.w3.org/2000/svg">
<circle cx="183.665" cy="164.296" r="3.3738" transform="rotate(179.914 183.665 164.296)" fill="#08ADB8"/>
<circle cx="161.173" cy="164.329" r="3.3738" transform="rotate(179.914 161.173 164.329)" fill="#08ADB8"/>
<circle cx="138.681" cy="164.363" r="3.3738" transform="rotate(179.914 138.681 164.363)" fill="#08ADB8"/>
<circle cx="116.189" cy="164.397" r="3.3738" transform="rotate(179.914 116.189 164.397)" fill="#08ADB8"/>
<circle cx="93.6975" cy="164.43" r="3.3738" transform="rotate(179.914 93.6975 164.43)" fill="#08ADB8"/>
<circle cx="71.2054" cy="164.464" r="3.3738" transform="rotate(179.914 71.2054 164.464)" fill="#08ADB8"/>
<circle cx="48.7134" cy="164.498" r="3.3738" transform="rotate(179.914 48.7134 164.498)" fill="#08ADB8"/>
<circle cx="26.2215" cy="164.532" r="3.3738" transform="rotate(179.914 26.2215 164.532)" fill="#08ADB8"/>
<circle cx="3.72945" cy="164.565" r="3.3738" transform="rotate(179.914 3.72945 164.565)" fill="#08ADB8"/>
<circle cx="183.642" cy="148.551" r="3.3738" transform="rotate(179.914 183.642 148.551)" fill="#08ADB8"/>
<circle cx="161.15" cy="148.585" r="3.3738" transform="rotate(179.914 161.15 148.585)" fill="#08ADB8"/>
<circle cx="138.658" cy="148.619" r="3.3738" transform="rotate(179.914 138.658 148.619)" fill="#08ADB8"/>
<circle cx="116.166" cy="148.652" r="3.3738" transform="rotate(179.914 116.166 148.652)" fill="#08ADB8"/>
<circle cx="93.6739" cy="148.686" r="3.3738" transform="rotate(179.914 93.6739 148.686)" fill="#08ADB8"/>
<circle cx="71.1819" cy="148.72" r="3.3738" transform="rotate(179.914 71.1819 148.72)" fill="#08ADB8"/>
<circle cx="48.6898" cy="148.754" r="3.3738" transform="rotate(179.914 48.6898 148.754)" fill="#08ADB8"/>
<circle cx="26.198" cy="148.787" r="3.3738" transform="rotate(179.914 26.198 148.787)" fill="#08ADB8"/>
<circle cx="3.70589" cy="148.821" r="3.3738" transform="rotate(179.914 3.70589 148.821)" fill="#08ADB8"/>
<circle cx="183.618" cy="132.807" r="3.3738" transform="rotate(179.914 183.618 132.807)" fill="#08ADB8"/>
<circle cx="161.126" cy="132.841" r="3.3738" transform="rotate(179.914 161.126 132.841)" fill="#08ADB8"/>
<circle cx="138.634" cy="132.874" r="3.3738" transform="rotate(179.914 138.634 132.874)" fill="#08ADB8"/>
<circle cx="116.142" cy="132.908" r="3.3738" transform="rotate(179.914 116.142 132.908)" fill="#08ADB8"/>
<circle cx="93.6502" cy="132.942" r="3.3738" transform="rotate(179.914 93.6502 132.942)" fill="#08ADB8"/>
<circle cx="71.1582" cy="132.975" r="3.3738" transform="rotate(179.914 71.1582 132.975)" fill="#08ADB8"/>
<circle cx="48.6662" cy="133.009" r="3.3738" transform="rotate(179.914 48.6662 133.009)" fill="#08ADB8"/>
<circle cx="26.1743" cy="133.043" r="3.3738" transform="rotate(179.914 26.1743 133.043)" fill="#08ADB8"/>
<circle cx="3.68224" cy="133.077" r="3.3738" transform="rotate(179.914 3.68224 133.077)" fill="#08ADB8"/>
<circle cx="183.595" cy="117.062" r="3.3738" transform="rotate(179.914 183.595 117.062)" fill="#08ADB8"/>
<circle cx="161.103" cy="117.096" r="3.3738" transform="rotate(179.914 161.103 117.096)" fill="#08ADB8"/>
<circle cx="138.611" cy="117.13" r="3.3738" transform="rotate(179.914 138.611 117.13)" fill="#08ADB8"/>
<circle cx="116.119" cy="117.164" r="3.3738" transform="rotate(179.914 116.119 117.164)" fill="#08ADB8"/>
<circle cx="93.6267" cy="117.197" r="3.3738" transform="rotate(179.914 93.6267 117.197)" fill="#08ADB8"/>
<circle cx="71.1346" cy="117.231" r="3.3738" transform="rotate(179.914 71.1346 117.231)" fill="#08ADB8"/>
<circle cx="48.6426" cy="117.265" r="3.3738" transform="rotate(179.914 48.6426 117.265)" fill="#08ADB8"/>
<circle cx="26.1507" cy="117.298" r="3.3738" transform="rotate(179.914 26.1507 117.298)" fill="#08ADB8"/>
<circle cx="3.65865" cy="117.332" r="3.3738" transform="rotate(179.914 3.65865 117.332)" fill="#08ADB8"/>
<circle cx="183.571" cy="101.318" r="3.3738" transform="rotate(179.914 183.571 101.318)" fill="#08ADB8"/>
<circle cx="161.079" cy="101.352" r="3.3738" transform="rotate(179.914 161.079 101.352)" fill="#08ADB8"/>
<circle cx="138.587" cy="101.385" r="3.3738" transform="rotate(179.914 138.587 101.385)" fill="#08ADB8"/>
<circle cx="116.095" cy="101.419" r="3.3738" transform="rotate(179.914 116.095 101.419)" fill="#08ADB8"/>
<circle cx="93.603" cy="101.453" r="3.3738" transform="rotate(179.914 93.603 101.453)" fill="#08ADB8"/>
<circle cx="71.111" cy="101.487" r="3.3738" transform="rotate(179.914 71.111 101.487)" fill="#08ADB8"/>
<circle cx="48.619" cy="101.52" r="3.3738" transform="rotate(179.914 48.619 101.52)" fill="#08ADB8"/>
<circle cx="26.1271" cy="101.554" r="3.3738" transform="rotate(179.914 26.1271 101.554)" fill="#08ADB8"/>
<circle cx="3.63503" cy="101.588" r="3.3738" transform="rotate(179.914 3.63503 101.588)" fill="#08ADB8"/>
<circle cx="183.547" cy="85.5736" r="3.3738" transform="rotate(179.914 183.547 85.5736)" fill="#08ADB8"/>
<circle cx="161.055" cy="85.6074" r="3.3738" transform="rotate(179.914 161.055 85.6074)" fill="#08ADB8"/>
<circle cx="138.563" cy="85.6411" r="3.3738" transform="rotate(179.914 138.563 85.6411)" fill="#08ADB8"/>
<circle cx="116.071" cy="85.6748" r="3.3738" transform="rotate(179.914 116.071 85.6748)" fill="#08ADB8"/>
<circle cx="93.5795" cy="85.7085" r="3.3738" transform="rotate(179.914 93.5795 85.7085)" fill="#08ADB8"/>
<circle cx="71.0874" cy="85.7422" r="3.3738" transform="rotate(179.914 71.0874 85.7422)" fill="#08ADB8"/>
<circle cx="48.5954" cy="85.7759" r="3.3738" transform="rotate(179.914 48.5954 85.7759)" fill="#08ADB8"/>
<circle cx="26.1035" cy="85.8097" r="3.3738" transform="rotate(179.914 26.1035 85.8097)" fill="#08ADB8"/>
<circle cx="3.61147" cy="85.8434" r="3.3738" transform="rotate(179.914 3.61147 85.8434)" fill="#08ADB8"/>
<circle cx="183.524" cy="69.8292" r="3.3738" transform="rotate(179.914 183.524 69.8292)" fill="#08ADB8"/>
<circle cx="161.032" cy="69.8629" r="3.3738" transform="rotate(179.914 161.032 69.8629)" fill="#08ADB8"/>
<circle cx="138.54" cy="69.8966" r="3.3738" transform="rotate(179.914 138.54 69.8966)" fill="#08ADB8"/>
<circle cx="116.048" cy="69.9304" r="3.3738" transform="rotate(179.914 116.048 69.9304)" fill="#08ADB8"/>
<circle cx="93.5558" cy="69.9641" r="3.3738" transform="rotate(179.914 93.5558 69.9641)" fill="#08ADB8"/>
<circle cx="71.0638" cy="69.9978" r="3.3738" transform="rotate(179.914 71.0638 69.9978)" fill="#08ADB8"/>
<circle cx="48.5717" cy="70.0315" r="3.3738" transform="rotate(179.914 48.5717 70.0315)" fill="#08ADB8"/>
<circle cx="26.0799" cy="70.0652" r="3.3738" transform="rotate(179.914 26.0799 70.0652)" fill="#08ADB8"/>
<circle cx="3.58779" cy="70.099" r="3.3738" transform="rotate(179.914 3.58779 70.099)" fill="#08ADB8"/>
<circle cx="183.5" cy="54.0848" r="3.3738" transform="rotate(179.914 183.5 54.0848)" fill="#08ADB8"/>
<circle cx="161.008" cy="54.1186" r="3.3738" transform="rotate(179.914 161.008 54.1186)" fill="#08ADB8"/>
<circle cx="138.516" cy="54.1523" r="3.3738" transform="rotate(179.914 138.516 54.1523)" fill="#08ADB8"/>
<circle cx="116.024" cy="54.186" r="3.3738" transform="rotate(179.914 116.024 54.186)" fill="#08ADB8"/>
<circle cx="93.5322" cy="54.2197" r="3.3738" transform="rotate(179.914 93.5322 54.2197)" fill="#08ADB8"/>
<circle cx="71.0401" cy="54.2535" r="3.3738" transform="rotate(179.914 71.0401 54.2535)" fill="#08ADB8"/>
<circle cx="48.5481" cy="54.2872" r="3.3738" transform="rotate(179.914 48.5481 54.2872)" fill="#08ADB8"/>
<circle cx="26.0562" cy="54.3209" r="3.3738" transform="rotate(179.914 26.0562 54.3209)" fill="#08ADB8"/>
<circle cx="3.5642" cy="54.3546" r="3.3738" transform="rotate(179.914 3.5642 54.3546)" fill="#08ADB8"/>
<circle cx="183.477" cy="38.3405" r="3.3738" transform="rotate(179.914 183.477 38.3405)" fill="#08ADB8"/>
<circle cx="160.985" cy="38.3742" r="3.3738" transform="rotate(179.914 160.985 38.3742)" fill="#08ADB8"/>
<circle cx="138.493" cy="38.4079" r="3.3738" transform="rotate(179.914 138.493 38.4079)" fill="#08ADB8"/>
<circle cx="116.001" cy="38.4416" r="3.3738" transform="rotate(179.914 116.001 38.4416)" fill="#08ADB8"/>
<circle cx="93.5086" cy="38.4753" r="3.3738" transform="rotate(179.914 93.5086 38.4753)" fill="#08ADB8"/>
<circle cx="71.0166" cy="38.5091" r="3.3738" transform="rotate(179.914 71.0166 38.5091)" fill="#08ADB8"/>
<circle cx="48.5245" cy="38.5428" r="3.3738" transform="rotate(179.914 48.5245 38.5428)" fill="#08ADB8"/>
<circle cx="26.0326" cy="38.5765" r="3.3738" transform="rotate(179.914 26.0326 38.5765)" fill="#08ADB8"/>
<circle cx="3.54061" cy="38.6102" r="3.3738" transform="rotate(179.914 3.54061 38.6102)" fill="#08ADB8"/>
<circle cx="183.453" cy="22.596" r="3.3738" transform="rotate(179.914 183.453 22.596)" fill="#08ADB8"/>
<circle cx="160.961" cy="22.6297" r="3.3738" transform="rotate(179.914 160.961 22.6297)" fill="#08ADB8"/>
<circle cx="138.469" cy="22.6635" r="3.3738" transform="rotate(179.914 138.469 22.6635)" fill="#08ADB8"/>
<circle cx="115.977" cy="22.6972" r="3.3738" transform="rotate(179.914 115.977 22.6972)" fill="#08ADB8"/>
<circle cx="93.485" cy="22.7309" r="3.3738" transform="rotate(179.914 93.485 22.7309)" fill="#08ADB8"/>
<circle cx="70.993" cy="22.7646" r="3.3738" transform="rotate(179.914 70.993 22.7646)" fill="#08ADB8"/>
<circle cx="48.5009" cy="22.7983" r="3.3738" transform="rotate(179.914 48.5009 22.7983)" fill="#08ADB8"/>
<circle cx="26.0091" cy="22.8321" r="3.3738" transform="rotate(179.914 26.0091 22.8321)" fill="#08ADB8"/>
<circle cx="3.51702" cy="22.8658" r="3.3738" transform="rotate(179.914 3.51702 22.8658)" fill="#08ADB8"/>
<circle cx="183.429" cy="6.85163" r="3.3738" transform="rotate(179.914 183.429 6.85163)" fill="#08ADB8"/>
<circle cx="160.937" cy="6.88535" r="3.3738" transform="rotate(179.914 160.937 6.88535)" fill="#08ADB8"/>
<circle cx="138.445" cy="6.91907" r="3.3738" transform="rotate(179.914 138.445 6.91907)" fill="#08ADB8"/>
<circle cx="115.953" cy="6.95279" r="3.3738" transform="rotate(179.914 115.953 6.95279)" fill="#08ADB8"/>
<circle cx="93.4614" cy="6.98651" r="3.3738" transform="rotate(179.914 93.4614 6.98651)" fill="#08ADB8"/>
<circle cx="70.9694" cy="7.02024" r="3.3738" transform="rotate(179.914 70.9694 7.02024)" fill="#08ADB8"/>
<circle cx="48.4774" cy="7.05396" r="3.3738" transform="rotate(179.914 48.4774 7.05396)" fill="#08ADB8"/>
<circle cx="25.9855" cy="7.08768" r="3.3738" transform="rotate(179.914 25.9855 7.08768)" fill="#08ADB8"/>
<circle cx="3.49343" cy="7.1214" r="3.3738" transform="rotate(179.914 3.49343 7.1214)" fill="#08ADB8"/>
</svg>
