<svg width="193" height="284" viewBox="0 0 193 284" fill="none" xmlns="http://www.w3.org/2000/svg">
<circle cx="3.48201" cy="3.9759" r="3.9759" fill="#C0FBFF"/>
<circle cx="29.9879" cy="3.9759" r="3.9759" fill="#C0FBFF"/>
<circle cx="56.494" cy="3.9759" r="3.9759" fill="#C0FBFF"/>
<circle cx="83" cy="3.9759" r="3.9759" fill="#C0FBFF"/>
<circle cx="109.506" cy="3.9759" r="3.9759" fill="#C0FBFF"/>
<circle cx="136.012" cy="3.9759" r="3.9759" fill="#C0FBFF"/>
<circle cx="162.518" cy="3.9759" r="3.9759" fill="#C0FBFF"/>
<circle cx="189.024" cy="3.9759" r="3.9759" fill="#C0FBFF"/>
<circle cx="3.48201" cy="22.5301" r="3.9759" fill="#C0FBFF"/>
<circle cx="29.9879" cy="22.5301" r="3.9759" fill="#C0FBFF"/>
<circle cx="56.494" cy="22.5301" r="3.9759" fill="#C0FBFF"/>
<circle cx="83" cy="22.5301" r="3.9759" fill="#C0FBFF"/>
<circle cx="109.506" cy="22.5301" r="3.9759" fill="#C0FBFF"/>
<circle cx="136.012" cy="22.5301" r="3.9759" fill="#C0FBFF"/>
<circle cx="162.518" cy="22.5301" r="3.9759" fill="#C0FBFF"/>
<circle cx="189.024" cy="22.5301" r="3.9759" fill="#C0FBFF"/>
<circle cx="3.48201" cy="41.0843" r="3.9759" fill="#C0FBFF"/>
<circle cx="29.9879" cy="41.0843" r="3.9759" fill="#C0FBFF"/>
<circle cx="56.494" cy="41.0843" r="3.9759" fill="#C0FBFF"/>
<circle cx="83" cy="41.0843" r="3.9759" fill="#C0FBFF"/>
<circle cx="109.506" cy="41.0843" r="3.9759" fill="#C0FBFF"/>
<circle cx="136.012" cy="41.0843" r="3.9759" fill="#C0FBFF"/>
<circle cx="162.518" cy="41.0843" r="3.9759" fill="#C0FBFF"/>
<circle cx="189.024" cy="41.0843" r="3.9759" fill="#C0FBFF"/>
<circle cx="3.48201" cy="59.6386" r="3.9759" fill="#C0FBFF"/>
<circle cx="29.9879" cy="59.6386" r="3.9759" fill="#C0FBFF"/>
<circle cx="56.494" cy="59.6386" r="3.9759" fill="#C0FBFF"/>
<circle cx="83" cy="59.6386" r="3.9759" fill="#C0FBFF"/>
<circle cx="109.506" cy="59.6386" r="3.9759" fill="#C0FBFF"/>
<circle cx="136.012" cy="59.6386" r="3.9759" fill="#C0FBFF"/>
<circle cx="162.518" cy="59.6386" r="3.9759" fill="#C0FBFF"/>
<circle cx="189.024" cy="59.6386" r="3.9759" fill="#C0FBFF"/>
<circle cx="3.48201" cy="78.1928" r="3.9759" fill="#C0FBFF"/>
<circle cx="29.9879" cy="78.1928" r="3.9759" fill="#C0FBFF"/>
<circle cx="56.494" cy="78.1928" r="3.9759" fill="#C0FBFF"/>
<circle cx="83" cy="78.1928" r="3.9759" fill="#C0FBFF"/>
<circle cx="109.506" cy="78.1928" r="3.9759" fill="#C0FBFF"/>
<circle cx="136.012" cy="78.1928" r="3.9759" fill="#C0FBFF"/>
<circle cx="162.518" cy="78.1928" r="3.9759" fill="#C0FBFF"/>
<circle cx="189.024" cy="78.1928" r="3.9759" fill="#C0FBFF"/>
<circle cx="3.48201" cy="96.747" r="3.9759" fill="#C0FBFF"/>
<circle cx="29.9879" cy="96.747" r="3.9759" fill="#C0FBFF"/>
<circle cx="56.494" cy="96.747" r="3.9759" fill="#C0FBFF"/>
<circle cx="83" cy="96.747" r="3.9759" fill="#C0FBFF"/>
<circle cx="109.506" cy="96.747" r="3.9759" fill="#C0FBFF"/>
<circle cx="136.012" cy="96.747" r="3.9759" fill="#C0FBFF"/>
<circle cx="162.518" cy="96.747" r="3.9759" fill="#C0FBFF"/>
<circle cx="189.024" cy="96.747" r="3.9759" fill="#C0FBFF"/>
<circle cx="3.48201" cy="115.301" r="3.9759" fill="#C0FBFF"/>
<circle cx="29.9879" cy="115.301" r="3.9759" fill="#C0FBFF"/>
<circle cx="56.494" cy="115.301" r="3.9759" fill="#C0FBFF"/>
<circle cx="83" cy="115.301" r="3.9759" fill="#C0FBFF"/>
<circle cx="109.506" cy="115.301" r="3.9759" fill="#C0FBFF"/>
<circle cx="136.012" cy="115.301" r="3.9759" fill="#C0FBFF"/>
<circle cx="162.518" cy="115.301" r="3.9759" fill="#C0FBFF"/>
<circle cx="189.024" cy="115.301" r="3.9759" fill="#C0FBFF"/>
<circle cx="3.48201" cy="133.855" r="3.9759" fill="#C0FBFF"/>
<circle cx="29.9879" cy="133.855" r="3.9759" fill="#C0FBFF"/>
<circle cx="56.494" cy="133.855" r="3.9759" fill="#C0FBFF"/>
<circle cx="83" cy="133.855" r="3.9759" fill="#C0FBFF"/>
<circle cx="109.506" cy="133.855" r="3.9759" fill="#C0FBFF"/>
<circle cx="136.012" cy="133.855" r="3.9759" fill="#C0FBFF"/>
<circle cx="162.518" cy="133.855" r="3.9759" fill="#C0FBFF"/>
<circle cx="189.024" cy="133.855" r="3.9759" fill="#C0FBFF"/>
<circle cx="3.48201" cy="152.41" r="3.9759" fill="#C0FBFF"/>
<circle cx="29.9879" cy="152.41" r="3.9759" fill="#C0FBFF"/>
<circle cx="56.494" cy="152.41" r="3.9759" fill="#C0FBFF"/>
<circle cx="83" cy="152.41" r="3.9759" fill="#C0FBFF"/>
<circle cx="109.506" cy="152.41" r="3.9759" fill="#C0FBFF"/>
<circle cx="136.012" cy="152.41" r="3.9759" fill="#C0FBFF"/>
<circle cx="162.518" cy="152.41" r="3.9759" fill="#C0FBFF"/>
<circle cx="189.024" cy="152.41" r="3.9759" fill="#C0FBFF"/>
<circle cx="3.48201" cy="170.964" r="3.9759" fill="#C0FBFF"/>
<circle cx="29.9879" cy="170.964" r="3.9759" fill="#C0FBFF"/>
<circle cx="56.494" cy="170.964" r="3.9759" fill="#C0FBFF"/>
<circle cx="83" cy="170.964" r="3.9759" fill="#C0FBFF"/>
<circle cx="109.506" cy="170.964" r="3.9759" fill="#C0FBFF"/>
<circle cx="136.012" cy="170.964" r="3.9759" fill="#C0FBFF"/>
<circle cx="162.518" cy="170.964" r="3.9759" fill="#C0FBFF"/>
<circle cx="189.024" cy="170.964" r="3.9759" fill="#C0FBFF"/>
<circle cx="3.48201" cy="189.518" r="3.9759" fill="#C0FBFF"/>
<circle cx="29.9879" cy="189.518" r="3.9759" fill="#C0FBFF"/>
<circle cx="56.494" cy="189.518" r="3.9759" fill="#C0FBFF"/>
<circle cx="83" cy="189.518" r="3.9759" fill="#C0FBFF"/>
<circle cx="109.506" cy="189.518" r="3.9759" fill="#C0FBFF"/>
<circle cx="136.012" cy="189.518" r="3.9759" fill="#C0FBFF"/>
<circle cx="162.518" cy="189.518" r="3.9759" fill="#C0FBFF"/>
<circle cx="189.024" cy="189.518" r="3.9759" fill="#C0FBFF"/>
<circle cx="3.48201" cy="208.072" r="3.9759" fill="#C0FBFF"/>
<circle cx="29.9879" cy="208.072" r="3.9759" fill="#C0FBFF"/>
<circle cx="56.494" cy="208.072" r="3.9759" fill="#C0FBFF"/>
<circle cx="83" cy="208.072" r="3.9759" fill="#C0FBFF"/>
<circle cx="109.506" cy="208.072" r="3.9759" fill="#C0FBFF"/>
<circle cx="136.012" cy="208.072" r="3.9759" fill="#C0FBFF"/>
<circle cx="162.518" cy="208.072" r="3.9759" fill="#C0FBFF"/>
<circle cx="189.024" cy="208.072" r="3.9759" fill="#C0FBFF"/>
<circle cx="3.48201" cy="226.626" r="3.9759" fill="#C0FBFF"/>
<circle cx="29.9879" cy="226.626" r="3.9759" fill="#C0FBFF"/>
<circle cx="56.494" cy="226.626" r="3.9759" fill="#C0FBFF"/>
<circle cx="83" cy="226.626" r="3.9759" fill="#C0FBFF"/>
<circle cx="109.506" cy="226.626" r="3.9759" fill="#C0FBFF"/>
<circle cx="136.012" cy="226.626" r="3.9759" fill="#C0FBFF"/>
<circle cx="162.518" cy="226.626" r="3.9759" fill="#C0FBFF"/>
<circle cx="189.024" cy="226.626" r="3.9759" fill="#C0FBFF"/>
<circle cx="3.48201" cy="242.53" r="3.9759" fill="#C0FBFF"/>
<circle cx="29.9879" cy="242.53" r="3.9759" fill="#C0FBFF"/>
<circle cx="56.494" cy="242.53" r="3.9759" fill="#C0FBFF"/>
<circle cx="83" cy="242.53" r="3.9759" fill="#C0FBFF"/>
<circle cx="109.506" cy="242.53" r="3.9759" fill="#C0FBFF"/>
<circle cx="136.012" cy="242.53" r="3.9759" fill="#C0FBFF"/>
<circle cx="162.518" cy="242.53" r="3.9759" fill="#C0FBFF"/>
<circle cx="189.024" cy="242.53" r="3.9759" fill="#C0FBFF"/>
<circle cx="3.48201" cy="261.084" r="3.9759" fill="#C0FBFF"/>
<circle cx="29.9879" cy="261.084" r="3.9759" fill="#C0FBFF"/>
<circle cx="56.494" cy="261.084" r="3.9759" fill="#C0FBFF"/>
<circle cx="83" cy="261.084" r="3.9759" fill="#C0FBFF"/>
<circle cx="109.506" cy="261.084" r="3.9759" fill="#C0FBFF"/>
<circle cx="136.012" cy="261.084" r="3.9759" fill="#C0FBFF"/>
<circle cx="162.518" cy="261.084" r="3.9759" fill="#C0FBFF"/>
<circle cx="189.024" cy="261.084" r="3.9759" fill="#C0FBFF"/>
<circle cx="3.48201" cy="279.639" r="3.9759" fill="#C0FBFF"/>
<circle cx="29.9879" cy="279.639" r="3.9759" fill="#C0FBFF"/>
<circle cx="56.494" cy="279.639" r="3.9759" fill="#C0FBFF"/>
<circle cx="83" cy="279.639" r="3.9759" fill="#C0FBFF"/>
<circle cx="109.506" cy="279.639" r="3.9759" fill="#C0FBFF"/>
<circle cx="136.012" cy="279.639" r="3.9759" fill="#C0FBFF"/>
<circle cx="162.518" cy="279.639" r="3.9759" fill="#C0FBFF"/>
<circle cx="189.024" cy="279.639" r="3.9759" fill="#C0FBFF"/>
</svg>
