<svg width="743" height="341" viewBox="0 0 743 341" fill="none" xmlns="http://www.w3.org/2000/svg">
<path d="M701.735 0.74103C712.531 41.5157 685.955 90.3978 627.854 136.634C569.754 182.87 484.887 222.672 391.925 247.285C298.963 271.898 205.519 279.306 132.151 267.878C58.7832 256.45 11.5006 227.123 0.704952 186.348L351.22 93.5444L701.735 0.74103Z" fill="#141F7A"/>
<path d="M701.735 0.74103C712.531 41.5157 685.955 90.3978 627.854 136.634C569.754 182.87 484.887 222.672 391.925 247.285C298.963 271.898 205.519 279.306 132.151 267.878C58.7832 256.45 11.5006 227.123 0.704952 186.348L351.22 93.5444L701.735 0.74103Z" fill="url(#paint0_linear)"/>
<defs>
<linearGradient id="paint0_linear" x1="310.515" y1="-60.1966" x2="391.925" y2="247.285" gradientUnits="userSpaceOnUse">
<stop stop-color="#07091F"/>
<stop offset="1" stop-color="white" stop-opacity="0"/>
</linearGradient>
</defs>
</svg>
